<mxfile host="app.diagrams.net" modified="2024-05-16T03:07:52.540Z" agent="Mozilla/5.0 (Windows NT 10.0; Win64; x64) AppleWebKit/537.36 (KHTML, like Gecko) Chrome/124.0.0.0 Safari/537.36" etag="eCz_Ax3Oi6aB-9vSa8s8" version="24.4.2" type="github">
  <diagram name="第 1 页" id="cqVoouBwEhZ9X5KKcfai">
    <mxGraphModel dx="1952" dy="1838" grid="1" gridSize="10" guides="1" tooltips="1" connect="1" arrows="1" fold="1" page="1" pageScale="1" pageWidth="827" pageHeight="1169" math="0" shadow="0">
      <root>
        <mxCell id="0" />
        <mxCell id="1" parent="0" />
        <mxCell id="4bgU9eHifBUtjP_TErYf-1" value="学生" style="rounded=0;whiteSpace=wrap;html=1;" parent="1" vertex="1">
          <mxGeometry x="470" y="110" width="120" height="60" as="geometry" />
        </mxCell>
        <mxCell id="4bgU9eHifBUtjP_TErYf-2" value="教师" style="rounded=0;whiteSpace=wrap;html=1;" parent="1" vertex="1">
          <mxGeometry x="150" y="120" width="120" height="60" as="geometry" />
        </mxCell>
        <mxCell id="4bgU9eHifBUtjP_TErYf-3" value="角色" style="rounded=0;whiteSpace=wrap;html=1;" parent="1" vertex="1">
          <mxGeometry x="110" y="720" width="120" height="60" as="geometry" />
        </mxCell>
        <mxCell id="4bgU9eHifBUtjP_TErYf-4" value="课程" style="rounded=0;whiteSpace=wrap;html=1;" parent="1" vertex="1">
          <mxGeometry x="325" y="-170" width="120" height="60" as="geometry" />
        </mxCell>
        <mxCell id="4bgU9eHifBUtjP_TErYf-6" value="用户" style="rounded=0;whiteSpace=wrap;html=1;" parent="1" vertex="1">
          <mxGeometry x="320" y="320" width="120" height="60" as="geometry" />
        </mxCell>
        <mxCell id="4bgU9eHifBUtjP_TErYf-8" value="课堂信息" style="rounded=0;whiteSpace=wrap;html=1;" parent="1" vertex="1">
          <mxGeometry x="174" y="-400" width="120" height="60" as="geometry" />
        </mxCell>
        <mxCell id="_ENiOjXf8TxeeVIYlNAx-7" value="" style="edgeStyle=orthogonalEdgeStyle;rounded=0;orthogonalLoop=1;jettySize=auto;html=1;curved=1;strokeColor=none;" parent="1" source="_ENiOjXf8TxeeVIYlNAx-1" target="4bgU9eHifBUtjP_TErYf-4" edge="1">
          <mxGeometry relative="1" as="geometry" />
        </mxCell>
        <mxCell id="_ENiOjXf8TxeeVIYlNAx-1" value="管理" style="rhombus;whiteSpace=wrap;html=1;" parent="1" vertex="1">
          <mxGeometry x="160" y="555" width="120" height="60" as="geometry" />
        </mxCell>
        <mxCell id="_ENiOjXf8TxeeVIYlNAx-10" value="m" style="endArrow=none;html=1;rounded=0;exitX=0.5;exitY=1;exitDx=0;exitDy=0;entryX=0.5;entryY=0;entryDx=0;entryDy=0;" parent="1" source="_ENiOjXf8TxeeVIYlNAx-1" target="4bgU9eHifBUtjP_TErYf-3" edge="1">
          <mxGeometry width="50" height="50" relative="1" as="geometry">
            <mxPoint x="320" y="610" as="sourcePoint" />
            <mxPoint x="190" y="730" as="targetPoint" />
          </mxGeometry>
        </mxCell>
        <mxCell id="_ENiOjXf8TxeeVIYlNAx-12" value="注册" style="rhombus;whiteSpace=wrap;html=1;" parent="1" vertex="1">
          <mxGeometry x="325" y="210" width="120" height="60" as="geometry" />
        </mxCell>
        <mxCell id="_ENiOjXf8TxeeVIYlNAx-14" value="n" style="endArrow=none;html=1;rounded=0;exitX=0.5;exitY=1;exitDx=0;exitDy=0;" parent="1" source="4bgU9eHifBUtjP_TErYf-6" target="_ENiOjXf8TxeeVIYlNAx-1" edge="1">
          <mxGeometry width="50" height="50" relative="1" as="geometry">
            <mxPoint x="390" y="500" as="sourcePoint" />
            <mxPoint x="390" y="530" as="targetPoint" />
          </mxGeometry>
        </mxCell>
        <mxCell id="_ENiOjXf8TxeeVIYlNAx-17" value="1" style="endArrow=none;html=1;rounded=0;entryX=0.5;entryY=0;entryDx=0;entryDy=0;exitX=0.5;exitY=1;exitDx=0;exitDy=0;" parent="1" source="_ENiOjXf8TxeeVIYlNAx-12" target="4bgU9eHifBUtjP_TErYf-6" edge="1">
          <mxGeometry width="50" height="50" relative="1" as="geometry">
            <mxPoint x="400" y="280" as="sourcePoint" />
            <mxPoint x="380" y="310" as="targetPoint" />
          </mxGeometry>
        </mxCell>
        <mxCell id="_ENiOjXf8TxeeVIYlNAx-18" value="1" style="endArrow=none;html=1;rounded=0;entryX=0.5;entryY=1;entryDx=0;entryDy=0;exitX=1;exitY=0.5;exitDx=0;exitDy=0;" parent="1" source="_ENiOjXf8TxeeVIYlNAx-12" target="4bgU9eHifBUtjP_TErYf-1" edge="1">
          <mxGeometry width="50" height="50" relative="1" as="geometry">
            <mxPoint x="515" y="320" as="sourcePoint" />
            <mxPoint x="565" y="270" as="targetPoint" />
          </mxGeometry>
        </mxCell>
        <mxCell id="_ENiOjXf8TxeeVIYlNAx-19" value="1" style="endArrow=none;html=1;rounded=0;entryX=0.5;entryY=1;entryDx=0;entryDy=0;exitX=0;exitY=0.5;exitDx=0;exitDy=0;" parent="1" source="_ENiOjXf8TxeeVIYlNAx-12" target="4bgU9eHifBUtjP_TErYf-2" edge="1">
          <mxGeometry width="50" height="50" relative="1" as="geometry">
            <mxPoint x="515" y="320" as="sourcePoint" />
            <mxPoint x="565" y="270" as="targetPoint" />
          </mxGeometry>
        </mxCell>
        <mxCell id="_ENiOjXf8TxeeVIYlNAx-21" value="所属" style="rhombus;whiteSpace=wrap;html=1;" parent="1" vertex="1">
          <mxGeometry x="110" y="-20" width="120" height="60" as="geometry" />
        </mxCell>
        <mxCell id="_ENiOjXf8TxeeVIYlNAx-22" value="选课" style="rhombus;whiteSpace=wrap;html=1;" parent="1" vertex="1">
          <mxGeometry x="500" y="-10" width="120" height="60" as="geometry" />
        </mxCell>
        <mxCell id="_ENiOjXf8TxeeVIYlNAx-23" value="m" style="endArrow=none;html=1;rounded=0;entryX=0.5;entryY=1;entryDx=0;entryDy=0;exitX=0.5;exitY=0;exitDx=0;exitDy=0;" parent="1" source="_ENiOjXf8TxeeVIYlNAx-21" target="4bgU9eHifBUtjP_TErYf-4" edge="1">
          <mxGeometry width="50" height="50" relative="1" as="geometry">
            <mxPoint x="510" as="sourcePoint" />
            <mxPoint x="560" y="-50" as="targetPoint" />
          </mxGeometry>
        </mxCell>
        <mxCell id="_ENiOjXf8TxeeVIYlNAx-24" value="n" style="endArrow=none;html=1;rounded=0;exitX=0.5;exitY=1;exitDx=0;exitDy=0;entryX=0.5;entryY=0;entryDx=0;entryDy=0;" parent="1" source="_ENiOjXf8TxeeVIYlNAx-21" target="4bgU9eHifBUtjP_TErYf-2" edge="1">
          <mxGeometry width="50" height="50" relative="1" as="geometry">
            <mxPoint x="510" as="sourcePoint" />
            <mxPoint x="560" y="-50" as="targetPoint" />
          </mxGeometry>
        </mxCell>
        <mxCell id="_ENiOjXf8TxeeVIYlNAx-25" value="m" style="endArrow=none;html=1;rounded=0;entryX=0.5;entryY=1;entryDx=0;entryDy=0;exitX=0.5;exitY=0;exitDx=0;exitDy=0;" parent="1" source="_ENiOjXf8TxeeVIYlNAx-22" target="4bgU9eHifBUtjP_TErYf-4" edge="1">
          <mxGeometry width="50" height="50" relative="1" as="geometry">
            <mxPoint x="510" as="sourcePoint" />
            <mxPoint x="560" y="-50" as="targetPoint" />
          </mxGeometry>
        </mxCell>
        <mxCell id="_ENiOjXf8TxeeVIYlNAx-26" value="n" style="endArrow=none;html=1;rounded=0;entryX=0.5;entryY=0;entryDx=0;entryDy=0;exitX=0.5;exitY=1;exitDx=0;exitDy=0;" parent="1" source="_ENiOjXf8TxeeVIYlNAx-22" target="4bgU9eHifBUtjP_TErYf-1" edge="1">
          <mxGeometry width="50" height="50" relative="1" as="geometry">
            <mxPoint x="510" as="sourcePoint" />
            <mxPoint x="560" y="-50" as="targetPoint" />
          </mxGeometry>
        </mxCell>
        <mxCell id="_ENiOjXf8TxeeVIYlNAx-27" value="选课" style="rhombus;whiteSpace=wrap;html=1;" parent="1" vertex="1">
          <mxGeometry x="240" y="-280" width="120" height="60" as="geometry" />
        </mxCell>
        <mxCell id="_ENiOjXf8TxeeVIYlNAx-28" value="1" style="endArrow=none;html=1;rounded=0;entryX=0.5;entryY=1;entryDx=0;entryDy=0;exitX=0.5;exitY=0;exitDx=0;exitDy=0;" parent="1" source="_ENiOjXf8TxeeVIYlNAx-27" target="4bgU9eHifBUtjP_TErYf-8" edge="1">
          <mxGeometry width="50" height="50" relative="1" as="geometry">
            <mxPoint x="510" y="-100" as="sourcePoint" />
            <mxPoint x="560" y="-150" as="targetPoint" />
          </mxGeometry>
        </mxCell>
        <mxCell id="_ENiOjXf8TxeeVIYlNAx-29" value="1" style="endArrow=none;html=1;rounded=0;entryX=0.5;entryY=1;entryDx=0;entryDy=0;exitX=0.5;exitY=0;exitDx=0;exitDy=0;" parent="1" source="4bgU9eHifBUtjP_TErYf-4" target="_ENiOjXf8TxeeVIYlNAx-27" edge="1">
          <mxGeometry width="50" height="50" relative="1" as="geometry">
            <mxPoint x="510" y="-100" as="sourcePoint" />
            <mxPoint x="560" y="-150" as="targetPoint" />
          </mxGeometry>
        </mxCell>
        <mxCell id="_ENiOjXf8TxeeVIYlNAx-30" value="学习状况" style="rounded=0;whiteSpace=wrap;html=1;" parent="1" vertex="1">
          <mxGeometry x="750" y="-150" width="120" height="60" as="geometry" />
        </mxCell>
        <mxCell id="_ENiOjXf8TxeeVIYlNAx-32" value="教学状况" style="rounded=0;whiteSpace=wrap;html=1;" parent="1" vertex="1">
          <mxGeometry x="-90" y="-180" width="120" height="60" as="geometry" />
        </mxCell>
        <mxCell id="_ENiOjXf8TxeeVIYlNAx-40" value="评论（课堂）" style="rounded=0;whiteSpace=wrap;html=1;" parent="1" vertex="1">
          <mxGeometry x="130" y="-614" width="120" height="60" as="geometry" />
        </mxCell>
        <mxCell id="_ENiOjXf8TxeeVIYlNAx-43" value="对应" style="rhombus;whiteSpace=wrap;html=1;" parent="1" vertex="1">
          <mxGeometry x="110" y="-190" width="120" height="60" as="geometry" />
        </mxCell>
        <mxCell id="_ENiOjXf8TxeeVIYlNAx-44" value="对应" style="rhombus;whiteSpace=wrap;html=1;" parent="1" vertex="1">
          <mxGeometry x="550" y="-180" width="120" height="60" as="geometry" />
        </mxCell>
        <mxCell id="_ENiOjXf8TxeeVIYlNAx-45" value="1" style="endArrow=none;html=1;rounded=0;entryX=0;entryY=0.5;entryDx=0;entryDy=0;exitX=1;exitY=0.5;exitDx=0;exitDy=0;" parent="1" source="_ENiOjXf8TxeeVIYlNAx-43" target="4bgU9eHifBUtjP_TErYf-4" edge="1">
          <mxGeometry width="50" height="50" relative="1" as="geometry">
            <mxPoint x="370" as="sourcePoint" />
            <mxPoint x="420" y="-50" as="targetPoint" />
          </mxGeometry>
        </mxCell>
        <mxCell id="_ENiOjXf8TxeeVIYlNAx-46" value="1" style="endArrow=none;html=1;rounded=0;entryX=0;entryY=0.5;entryDx=0;entryDy=0;exitX=1;exitY=0.5;exitDx=0;exitDy=0;" parent="1" source="_ENiOjXf8TxeeVIYlNAx-32" target="_ENiOjXf8TxeeVIYlNAx-43" edge="1">
          <mxGeometry width="50" height="50" relative="1" as="geometry">
            <mxPoint x="370" as="sourcePoint" />
            <mxPoint x="420" y="-50" as="targetPoint" />
          </mxGeometry>
        </mxCell>
        <mxCell id="_ENiOjXf8TxeeVIYlNAx-47" value="1" style="endArrow=none;html=1;rounded=0;entryX=0;entryY=0.5;entryDx=0;entryDy=0;exitX=1;exitY=0.5;exitDx=0;exitDy=0;" parent="1" source="4bgU9eHifBUtjP_TErYf-4" target="_ENiOjXf8TxeeVIYlNAx-44" edge="1">
          <mxGeometry width="50" height="50" relative="1" as="geometry">
            <mxPoint x="370" as="sourcePoint" />
            <mxPoint x="420" y="-50" as="targetPoint" />
          </mxGeometry>
        </mxCell>
        <mxCell id="_ENiOjXf8TxeeVIYlNAx-49" value="1" style="endArrow=none;html=1;rounded=0;entryX=0;entryY=0.5;entryDx=0;entryDy=0;exitX=1;exitY=0.5;exitDx=0;exitDy=0;" parent="1" source="_ENiOjXf8TxeeVIYlNAx-44" target="_ENiOjXf8TxeeVIYlNAx-30" edge="1">
          <mxGeometry width="50" height="50" relative="1" as="geometry">
            <mxPoint x="370" as="sourcePoint" />
            <mxPoint x="420" y="-50" as="targetPoint" />
          </mxGeometry>
        </mxCell>
        <mxCell id="_ENiOjXf8TxeeVIYlNAx-51" value="所属" style="rhombus;whiteSpace=wrap;html=1;" parent="1" vertex="1">
          <mxGeometry x="-40" y="20" width="120" height="60" as="geometry" />
        </mxCell>
        <mxCell id="_ENiOjXf8TxeeVIYlNAx-52" value="所属" style="rhombus;whiteSpace=wrap;html=1;" parent="1" vertex="1">
          <mxGeometry x="690" y="10" width="120" height="60" as="geometry" />
        </mxCell>
        <mxCell id="_ENiOjXf8TxeeVIYlNAx-53" value="1" style="endArrow=none;html=1;rounded=0;entryX=0.5;entryY=1;entryDx=0;entryDy=0;exitX=1;exitY=0.5;exitDx=0;exitDy=0;" parent="1" source="4bgU9eHifBUtjP_TErYf-1" target="_ENiOjXf8TxeeVIYlNAx-52" edge="1">
          <mxGeometry width="50" height="50" relative="1" as="geometry">
            <mxPoint x="370" y="100" as="sourcePoint" />
            <mxPoint x="420" y="50" as="targetPoint" />
          </mxGeometry>
        </mxCell>
        <mxCell id="_ENiOjXf8TxeeVIYlNAx-54" value="n" style="endArrow=none;html=1;rounded=0;entryX=0.5;entryY=1;entryDx=0;entryDy=0;exitX=0.5;exitY=0;exitDx=0;exitDy=0;" parent="1" source="_ENiOjXf8TxeeVIYlNAx-52" target="_ENiOjXf8TxeeVIYlNAx-30" edge="1">
          <mxGeometry width="50" height="50" relative="1" as="geometry">
            <mxPoint x="370" y="100" as="sourcePoint" />
            <mxPoint x="420" y="50" as="targetPoint" />
          </mxGeometry>
        </mxCell>
        <mxCell id="_ENiOjXf8TxeeVIYlNAx-55" value="1" style="endArrow=none;html=1;rounded=0;entryX=0.5;entryY=1;entryDx=0;entryDy=0;exitX=0;exitY=0.5;exitDx=0;exitDy=0;" parent="1" source="4bgU9eHifBUtjP_TErYf-2" target="_ENiOjXf8TxeeVIYlNAx-51" edge="1">
          <mxGeometry width="50" height="50" relative="1" as="geometry">
            <mxPoint x="370" y="100" as="sourcePoint" />
            <mxPoint x="420" y="50" as="targetPoint" />
          </mxGeometry>
        </mxCell>
        <mxCell id="_ENiOjXf8TxeeVIYlNAx-56" value="n" style="endArrow=none;html=1;rounded=0;entryX=0.5;entryY=1;entryDx=0;entryDy=0;exitX=0.5;exitY=0;exitDx=0;exitDy=0;" parent="1" source="_ENiOjXf8TxeeVIYlNAx-51" target="_ENiOjXf8TxeeVIYlNAx-32" edge="1">
          <mxGeometry width="50" height="50" relative="1" as="geometry">
            <mxPoint x="370" y="100" as="sourcePoint" />
            <mxPoint x="420" y="50" as="targetPoint" />
          </mxGeometry>
        </mxCell>
        <mxCell id="_ENiOjXf8TxeeVIYlNAx-58" value="标签" style="rounded=0;whiteSpace=wrap;html=1;" parent="1" vertex="1">
          <mxGeometry x="390" y="-490" width="120" height="60" as="geometry" />
        </mxCell>
        <mxCell id="_ENiOjXf8TxeeVIYlNAx-59" value="拥有" style="rhombus;whiteSpace=wrap;html=1;" parent="1" vertex="1">
          <mxGeometry x="370" y="-360" width="120" height="60" as="geometry" />
        </mxCell>
        <mxCell id="_ENiOjXf8TxeeVIYlNAx-60" value="1" style="endArrow=none;html=1;rounded=0;entryX=0.5;entryY=1;entryDx=0;entryDy=0;exitX=0.5;exitY=0;exitDx=0;exitDy=0;" parent="1" source="4bgU9eHifBUtjP_TErYf-4" target="_ENiOjXf8TxeeVIYlNAx-59" edge="1">
          <mxGeometry width="50" height="50" relative="1" as="geometry">
            <mxPoint x="550" y="-200" as="sourcePoint" />
            <mxPoint x="600" y="-250" as="targetPoint" />
          </mxGeometry>
        </mxCell>
        <mxCell id="_ENiOjXf8TxeeVIYlNAx-61" value="n" style="endArrow=none;html=1;rounded=0;exitX=0.5;exitY=0;exitDx=0;exitDy=0;" parent="1" source="_ENiOjXf8TxeeVIYlNAx-59" target="_ENiOjXf8TxeeVIYlNAx-58" edge="1">
          <mxGeometry width="50" height="50" relative="1" as="geometry">
            <mxPoint x="550" y="-200" as="sourcePoint" />
            <mxPoint x="600" y="-250" as="targetPoint" />
          </mxGeometry>
        </mxCell>
        <mxCell id="_ENiOjXf8TxeeVIYlNAx-62" value="选课" style="rhombus;whiteSpace=wrap;html=1;" parent="1" vertex="1">
          <mxGeometry x="160" y="-490" width="120" height="60" as="geometry" />
        </mxCell>
        <mxCell id="_ENiOjXf8TxeeVIYlNAx-63" value="n" style="endArrow=none;html=1;rounded=0;entryX=0.445;entryY=1.037;entryDx=0;entryDy=0;entryPerimeter=0;exitX=0.5;exitY=0;exitDx=0;exitDy=0;" parent="1" source="_ENiOjXf8TxeeVIYlNAx-62" target="_ENiOjXf8TxeeVIYlNAx-40" edge="1">
          <mxGeometry width="50" height="50" relative="1" as="geometry">
            <mxPoint x="560" y="-300" as="sourcePoint" />
            <mxPoint x="610" y="-350" as="targetPoint" />
          </mxGeometry>
        </mxCell>
        <mxCell id="_ENiOjXf8TxeeVIYlNAx-64" value="1" style="endArrow=none;html=1;rounded=0;entryX=0.5;entryY=1;entryDx=0;entryDy=0;exitX=0.5;exitY=0;exitDx=0;exitDy=0;" parent="1" source="4bgU9eHifBUtjP_TErYf-8" target="_ENiOjXf8TxeeVIYlNAx-62" edge="1">
          <mxGeometry width="50" height="50" relative="1" as="geometry">
            <mxPoint x="560" y="-300" as="sourcePoint" />
            <mxPoint x="610" y="-350" as="targetPoint" />
          </mxGeometry>
        </mxCell>
        <mxCell id="_ENiOjXf8TxeeVIYlNAx-66" value="账号" style="ellipse;whiteSpace=wrap;html=1;" parent="1" vertex="1">
          <mxGeometry x="-60" y="320" width="120" height="80" as="geometry" />
        </mxCell>
        <mxCell id="_ENiOjXf8TxeeVIYlNAx-67" value="ID" style="ellipse;whiteSpace=wrap;html=1;" parent="1" vertex="1">
          <mxGeometry x="-50" y="230" width="120" height="80" as="geometry" />
        </mxCell>
        <mxCell id="_ENiOjXf8TxeeVIYlNAx-68" value="密码（加密后）" style="ellipse;whiteSpace=wrap;html=1;" parent="1" vertex="1">
          <mxGeometry x="-40" y="410" width="120" height="80" as="geometry" />
        </mxCell>
        <mxCell id="_ENiOjXf8TxeeVIYlNAx-69" value="" style="endArrow=none;html=1;rounded=0;exitX=0;exitY=0.5;exitDx=0;exitDy=0;" parent="1" source="4bgU9eHifBUtjP_TErYf-6" target="_ENiOjXf8TxeeVIYlNAx-67" edge="1">
          <mxGeometry width="50" height="50" relative="1" as="geometry">
            <mxPoint x="450" y="340" as="sourcePoint" />
            <mxPoint x="500" y="290" as="targetPoint" />
          </mxGeometry>
        </mxCell>
        <mxCell id="_ENiOjXf8TxeeVIYlNAx-70" value="" style="endArrow=none;html=1;rounded=0;entryX=1;entryY=0.5;entryDx=0;entryDy=0;exitX=0;exitY=0.5;exitDx=0;exitDy=0;" parent="1" source="4bgU9eHifBUtjP_TErYf-6" target="_ENiOjXf8TxeeVIYlNAx-66" edge="1">
          <mxGeometry width="50" height="50" relative="1" as="geometry">
            <mxPoint x="320" y="350" as="sourcePoint" />
            <mxPoint x="500" y="290" as="targetPoint" />
          </mxGeometry>
        </mxCell>
        <mxCell id="_ENiOjXf8TxeeVIYlNAx-71" value="" style="endArrow=none;html=1;rounded=0;exitX=1;exitY=0;exitDx=0;exitDy=0;entryX=0;entryY=0.5;entryDx=0;entryDy=0;" parent="1" source="_ENiOjXf8TxeeVIYlNAx-68" target="4bgU9eHifBUtjP_TErYf-6" edge="1">
          <mxGeometry width="50" height="50" relative="1" as="geometry">
            <mxPoint x="450" y="340" as="sourcePoint" />
            <mxPoint x="320" y="350" as="targetPoint" />
          </mxGeometry>
        </mxCell>
        <mxCell id="_ENiOjXf8TxeeVIYlNAx-72" value="盐" style="rounded=0;whiteSpace=wrap;html=1;" parent="1" vertex="1">
          <mxGeometry x="450" y="585" width="120" height="60" as="geometry" />
        </mxCell>
        <mxCell id="_ENiOjXf8TxeeVIYlNAx-73" value="1" style="endArrow=none;html=1;rounded=0;entryX=0.432;entryY=-0.043;entryDx=0;entryDy=0;entryPerimeter=0;exitX=0.5;exitY=1;exitDx=0;exitDy=0;" parent="1" source="_ENiOjXf8TxeeVIYlNAx-78" target="_ENiOjXf8TxeeVIYlNAx-72" edge="1">
          <mxGeometry width="50" height="50" relative="1" as="geometry">
            <mxPoint x="570" y="410" as="sourcePoint" />
            <mxPoint x="500" y="290" as="targetPoint" />
          </mxGeometry>
        </mxCell>
        <mxCell id="_ENiOjXf8TxeeVIYlNAx-75" value="盐" style="ellipse;whiteSpace=wrap;html=1;" parent="1" vertex="1">
          <mxGeometry x="414" y="690" width="120" height="80" as="geometry" />
        </mxCell>
        <mxCell id="_ENiOjXf8TxeeVIYlNAx-76" value="ID" style="ellipse;whiteSpace=wrap;html=1;" parent="1" vertex="1">
          <mxGeometry x="587" y="680" width="120" height="80" as="geometry" />
        </mxCell>
        <mxCell id="_ENiOjXf8TxeeVIYlNAx-78" value="所属" style="rhombus;whiteSpace=wrap;html=1;" parent="1" vertex="1">
          <mxGeometry x="390" y="450" width="120" height="60" as="geometry" />
        </mxCell>
        <mxCell id="_ENiOjXf8TxeeVIYlNAx-79" value="1" style="endArrow=none;html=1;rounded=0;entryX=0.5;entryY=1;entryDx=0;entryDy=0;exitX=0.5;exitY=0;exitDx=0;exitDy=0;" parent="1" source="_ENiOjXf8TxeeVIYlNAx-78" target="4bgU9eHifBUtjP_TErYf-6" edge="1">
          <mxGeometry width="50" height="50" relative="1" as="geometry">
            <mxPoint x="450" y="540" as="sourcePoint" />
            <mxPoint x="500" y="490" as="targetPoint" />
          </mxGeometry>
        </mxCell>
        <mxCell id="_ENiOjXf8TxeeVIYlNAx-80" value="" style="endArrow=none;html=1;rounded=0;entryX=0;entryY=0;entryDx=0;entryDy=0;exitX=1;exitY=0.5;exitDx=0;exitDy=0;" parent="1" source="_ENiOjXf8TxeeVIYlNAx-72" target="_ENiOjXf8TxeeVIYlNAx-76" edge="1">
          <mxGeometry width="50" height="50" relative="1" as="geometry">
            <mxPoint x="450" y="540" as="sourcePoint" />
            <mxPoint x="500" y="490" as="targetPoint" />
          </mxGeometry>
        </mxCell>
        <mxCell id="_ENiOjXf8TxeeVIYlNAx-81" value="" style="endArrow=none;html=1;rounded=0;entryX=0.5;entryY=1;entryDx=0;entryDy=0;exitX=0.5;exitY=0;exitDx=0;exitDy=0;" parent="1" source="_ENiOjXf8TxeeVIYlNAx-75" target="_ENiOjXf8TxeeVIYlNAx-72" edge="1">
          <mxGeometry width="50" height="50" relative="1" as="geometry">
            <mxPoint x="450" y="840" as="sourcePoint" />
            <mxPoint x="500" y="790" as="targetPoint" />
          </mxGeometry>
        </mxCell>
        <mxCell id="_ENiOjXf8TxeeVIYlNAx-82" value="角色名（中文）" style="ellipse;whiteSpace=wrap;html=1;" parent="1" vertex="1">
          <mxGeometry x="-110" y="820" width="120" height="80" as="geometry" />
        </mxCell>
        <mxCell id="_ENiOjXf8TxeeVIYlNAx-83" value="角色名" style="ellipse;whiteSpace=wrap;html=1;" parent="1" vertex="1">
          <mxGeometry x="-120" y="585" width="120" height="80" as="geometry" />
        </mxCell>
        <mxCell id="_ENiOjXf8TxeeVIYlNAx-84" value="" style="endArrow=none;html=1;rounded=0;exitX=1;exitY=1;exitDx=0;exitDy=0;entryX=0;entryY=0.5;entryDx=0;entryDy=0;" parent="1" source="_ENiOjXf8TxeeVIYlNAx-83" target="4bgU9eHifBUtjP_TErYf-3" edge="1">
          <mxGeometry width="50" height="50" relative="1" as="geometry">
            <mxPoint x="450" y="640" as="sourcePoint" />
            <mxPoint x="130" y="770" as="targetPoint" />
          </mxGeometry>
        </mxCell>
        <mxCell id="_ENiOjXf8TxeeVIYlNAx-85" value="" style="endArrow=none;html=1;rounded=0;entryX=0;entryY=0.5;entryDx=0;entryDy=0;exitX=1;exitY=0.5;exitDx=0;exitDy=0;" parent="1" source="_ENiOjXf8TxeeVIYlNAx-82" target="4bgU9eHifBUtjP_TErYf-3" edge="1">
          <mxGeometry width="50" height="50" relative="1" as="geometry">
            <mxPoint x="450" y="640" as="sourcePoint" />
            <mxPoint x="500" y="590" as="targetPoint" />
          </mxGeometry>
        </mxCell>
        <mxCell id="_ENiOjXf8TxeeVIYlNAx-86" value="ID" style="ellipse;whiteSpace=wrap;html=1;" parent="1" vertex="1">
          <mxGeometry x="-220" y="730" width="120" height="80" as="geometry" />
        </mxCell>
        <mxCell id="_ENiOjXf8TxeeVIYlNAx-88" value="" style="endArrow=none;html=1;rounded=0;entryX=0;entryY=0.5;entryDx=0;entryDy=0;exitX=1;exitY=0.5;exitDx=0;exitDy=0;" parent="1" source="_ENiOjXf8TxeeVIYlNAx-86" target="4bgU9eHifBUtjP_TErYf-3" edge="1">
          <mxGeometry width="50" height="50" relative="1" as="geometry">
            <mxPoint x="250" y="790" as="sourcePoint" />
            <mxPoint x="300" y="740" as="targetPoint" />
          </mxGeometry>
        </mxCell>
        <mxCell id="_ENiOjXf8TxeeVIYlNAx-92" value="头像" style="ellipse;whiteSpace=wrap;html=1;" parent="1" vertex="1">
          <mxGeometry x="60" y="475" width="120" height="80" as="geometry" />
        </mxCell>
        <mxCell id="_ENiOjXf8TxeeVIYlNAx-99" value="" style="endArrow=none;html=1;rounded=0;entryX=0;entryY=0.5;entryDx=0;entryDy=0;exitX=1;exitY=0;exitDx=0;exitDy=0;" parent="1" source="_ENiOjXf8TxeeVIYlNAx-92" target="4bgU9eHifBUtjP_TErYf-6" edge="1">
          <mxGeometry width="50" height="50" relative="1" as="geometry">
            <mxPoint x="470" y="390" as="sourcePoint" />
            <mxPoint x="520" y="340" as="targetPoint" />
          </mxGeometry>
        </mxCell>
        <mxCell id="p0-o4S79YIVxH50bc59x-1" value="老师" style="rounded=0;whiteSpace=wrap;html=1;" vertex="1" parent="1">
          <mxGeometry x="900" y="20" width="100" height="40" as="geometry" />
        </mxCell>
        <mxCell id="p0-o4S79YIVxH50bc59x-2" value="学生" style="rounded=0;whiteSpace=wrap;html=1;" vertex="1" parent="1">
          <mxGeometry x="880" y="290" width="100" height="40" as="geometry" />
        </mxCell>
        <mxCell id="p0-o4S79YIVxH50bc59x-3" value="开设" style="rhombus;whiteSpace=wrap;html=1;" vertex="1" parent="1">
          <mxGeometry x="1030" y="60" width="100" height="40" as="geometry" />
        </mxCell>
        <mxCell id="p0-o4S79YIVxH50bc59x-4" value="" style="endArrow=none;html=1;rounded=0;entryX=0;entryY=0;entryDx=0;entryDy=0;" edge="1" parent="1" target="p0-o4S79YIVxH50bc59x-3">
          <mxGeometry width="50" height="50" relative="1" as="geometry">
            <mxPoint x="1000" y="40" as="sourcePoint" />
            <mxPoint x="1050" y="-10" as="targetPoint" />
          </mxGeometry>
        </mxCell>
        <mxCell id="p0-o4S79YIVxH50bc59x-5" value="课程" style="rounded=0;whiteSpace=wrap;html=1;fillColor=#d5e8d4;strokeColor=#82b366;" vertex="1" parent="1">
          <mxGeometry x="1160" y="100" width="85" height="40" as="geometry" />
        </mxCell>
        <mxCell id="p0-o4S79YIVxH50bc59x-6" value="" style="endArrow=none;html=1;rounded=0;entryX=0.5;entryY=0;entryDx=0;entryDy=0;" edge="1" parent="1" target="p0-o4S79YIVxH50bc59x-5">
          <mxGeometry width="50" height="50" relative="1" as="geometry">
            <mxPoint x="1130" y="80" as="sourcePoint" />
            <mxPoint x="1180" y="30" as="targetPoint" />
          </mxGeometry>
        </mxCell>
        <mxCell id="p0-o4S79YIVxH50bc59x-7" value="参与" style="rhombus;whiteSpace=wrap;html=1;" vertex="1" parent="1">
          <mxGeometry x="1020" y="160" width="90" height="50" as="geometry" />
        </mxCell>
        <mxCell id="p0-o4S79YIVxH50bc59x-8" value="" style="endArrow=none;html=1;rounded=0;exitX=1;exitY=0.25;exitDx=0;exitDy=0;" edge="1" parent="1" source="p0-o4S79YIVxH50bc59x-2" target="p0-o4S79YIVxH50bc59x-7">
          <mxGeometry width="50" height="50" relative="1" as="geometry">
            <mxPoint x="980" y="200" as="sourcePoint" />
            <mxPoint x="1030" y="150" as="targetPoint" />
          </mxGeometry>
        </mxCell>
        <mxCell id="p0-o4S79YIVxH50bc59x-9" value="" style="endArrow=none;html=1;rounded=0;exitX=1;exitY=0.5;exitDx=0;exitDy=0;" edge="1" parent="1" source="p0-o4S79YIVxH50bc59x-7" target="p0-o4S79YIVxH50bc59x-5">
          <mxGeometry width="50" height="50" relative="1" as="geometry">
            <mxPoint x="1110" y="210" as="sourcePoint" />
            <mxPoint x="1160" y="160" as="targetPoint" />
          </mxGeometry>
        </mxCell>
        <mxCell id="p0-o4S79YIVxH50bc59x-10" value="作业" style="ellipse;whiteSpace=wrap;html=1;" vertex="1" parent="1">
          <mxGeometry x="1150" y="210" width="70" height="50" as="geometry" />
        </mxCell>
        <mxCell id="p0-o4S79YIVxH50bc59x-11" value="测试" style="ellipse;whiteSpace=wrap;html=1;" vertex="1" parent="1">
          <mxGeometry x="1360" y="210" width="70" height="50" as="geometry" />
        </mxCell>
        <mxCell id="p0-o4S79YIVxH50bc59x-12" value="资料" style="ellipse;whiteSpace=wrap;html=1;" vertex="1" parent="1">
          <mxGeometry x="1240" y="210" width="70" height="50" as="geometry" />
        </mxCell>
        <mxCell id="p0-o4S79YIVxH50bc59x-13" value="" style="endArrow=none;html=1;rounded=0;exitX=0.5;exitY=0;exitDx=0;exitDy=0;entryX=0.5;entryY=1;entryDx=0;entryDy=0;" edge="1" parent="1" source="p0-o4S79YIVxH50bc59x-12" target="p0-o4S79YIVxH50bc59x-5">
          <mxGeometry width="50" height="50" relative="1" as="geometry">
            <mxPoint x="1340" y="190" as="sourcePoint" />
            <mxPoint x="1390" y="140" as="targetPoint" />
          </mxGeometry>
        </mxCell>
        <mxCell id="p0-o4S79YIVxH50bc59x-14" value="" style="endArrow=none;html=1;rounded=0;exitX=0.5;exitY=0;exitDx=0;exitDy=0;entryX=0.5;entryY=1;entryDx=0;entryDy=0;" edge="1" parent="1" source="p0-o4S79YIVxH50bc59x-10" target="p0-o4S79YIVxH50bc59x-5">
          <mxGeometry width="50" height="50" relative="1" as="geometry">
            <mxPoint x="1340" y="190" as="sourcePoint" />
            <mxPoint x="1390" y="140" as="targetPoint" />
          </mxGeometry>
        </mxCell>
        <mxCell id="p0-o4S79YIVxH50bc59x-15" value="" style="endArrow=none;html=1;rounded=0;entryX=0.5;entryY=1;entryDx=0;entryDy=0;exitX=0;exitY=0;exitDx=0;exitDy=0;" edge="1" parent="1" source="p0-o4S79YIVxH50bc59x-11" target="p0-o4S79YIVxH50bc59x-5">
          <mxGeometry width="50" height="50" relative="1" as="geometry">
            <mxPoint x="1330" y="190" as="sourcePoint" />
            <mxPoint x="1380" y="140" as="targetPoint" />
          </mxGeometry>
        </mxCell>
        <mxCell id="p0-o4S79YIVxH50bc59x-16" value="教育机构" style="rounded=0;whiteSpace=wrap;html=1;" vertex="1" parent="1">
          <mxGeometry x="850" y="480" width="80" height="40" as="geometry" />
        </mxCell>
        <mxCell id="p0-o4S79YIVxH50bc59x-17" value="开设" style="rhombus;whiteSpace=wrap;html=1;" vertex="1" parent="1">
          <mxGeometry x="920" y="540" width="100" height="40" as="geometry" />
        </mxCell>
        <mxCell id="p0-o4S79YIVxH50bc59x-18" value="比赛" style="rounded=0;whiteSpace=wrap;html=1;fillColor=#d5e8d4;strokeColor=#82b366;" vertex="1" parent="1">
          <mxGeometry x="970" y="450" width="85" height="40" as="geometry" />
        </mxCell>
        <mxCell id="p0-o4S79YIVxH50bc59x-19" value="参与" style="rhombus;whiteSpace=wrap;html=1;" vertex="1" parent="1">
          <mxGeometry x="890" y="380" width="90" height="50" as="geometry" />
        </mxCell>
        <mxCell id="p0-o4S79YIVxH50bc59x-20" value="" style="endArrow=none;html=1;rounded=0;exitX=0.5;exitY=0;exitDx=0;exitDy=0;entryX=0.5;entryY=1;entryDx=0;entryDy=0;" edge="1" parent="1" source="p0-o4S79YIVxH50bc59x-19" target="p0-o4S79YIVxH50bc59x-2">
          <mxGeometry width="50" height="50" relative="1" as="geometry">
            <mxPoint x="880" y="370" as="sourcePoint" />
            <mxPoint x="930" y="320" as="targetPoint" />
          </mxGeometry>
        </mxCell>
        <mxCell id="p0-o4S79YIVxH50bc59x-21" value="" style="endArrow=none;html=1;rounded=0;exitX=0.932;exitY=0.551;exitDx=0;exitDy=0;exitPerimeter=0;entryX=0.429;entryY=0.005;entryDx=0;entryDy=0;entryPerimeter=0;" edge="1" parent="1" source="p0-o4S79YIVxH50bc59x-19" target="p0-o4S79YIVxH50bc59x-18">
          <mxGeometry width="50" height="50" relative="1" as="geometry">
            <mxPoint x="1060" y="370" as="sourcePoint" />
            <mxPoint x="1110" y="320" as="targetPoint" />
          </mxGeometry>
        </mxCell>
        <mxCell id="p0-o4S79YIVxH50bc59x-22" value="" style="endArrow=none;html=1;rounded=0;entryX=0;entryY=0;entryDx=0;entryDy=0;exitX=1;exitY=0.5;exitDx=0;exitDy=0;" edge="1" parent="1" source="p0-o4S79YIVxH50bc59x-16" target="p0-o4S79YIVxH50bc59x-17">
          <mxGeometry width="50" height="50" relative="1" as="geometry">
            <mxPoint x="910" y="460" as="sourcePoint" />
            <mxPoint x="960" y="410" as="targetPoint" />
          </mxGeometry>
        </mxCell>
        <mxCell id="p0-o4S79YIVxH50bc59x-23" value="" style="endArrow=none;html=1;rounded=0;entryX=0.5;entryY=1;entryDx=0;entryDy=0;" edge="1" parent="1" source="p0-o4S79YIVxH50bc59x-17" target="p0-o4S79YIVxH50bc59x-18">
          <mxGeometry width="50" height="50" relative="1" as="geometry">
            <mxPoint x="1080" y="490" as="sourcePoint" />
            <mxPoint x="1130" y="440" as="targetPoint" />
          </mxGeometry>
        </mxCell>
        <mxCell id="p0-o4S79YIVxH50bc59x-24" value="比赛信息" style="ellipse;whiteSpace=wrap;html=1;" vertex="1" parent="1">
          <mxGeometry x="1090" y="460" width="70" height="50" as="geometry" />
        </mxCell>
        <mxCell id="p0-o4S79YIVxH50bc59x-25" value="报名信息" style="ellipse;whiteSpace=wrap;html=1;" vertex="1" parent="1">
          <mxGeometry x="1035" y="535" width="75" height="50" as="geometry" />
        </mxCell>
        <mxCell id="p0-o4S79YIVxH50bc59x-26" value="" style="endArrow=none;html=1;rounded=0;exitX=1;exitY=0.5;exitDx=0;exitDy=0;entryX=0;entryY=0.5;entryDx=0;entryDy=0;" edge="1" parent="1" source="p0-o4S79YIVxH50bc59x-18" target="p0-o4S79YIVxH50bc59x-24">
          <mxGeometry width="50" height="50" relative="1" as="geometry">
            <mxPoint x="1190" y="440" as="sourcePoint" />
            <mxPoint x="1240" y="390" as="targetPoint" />
          </mxGeometry>
        </mxCell>
        <mxCell id="p0-o4S79YIVxH50bc59x-27" value="" style="endArrow=none;html=1;rounded=0;entryX=1;entryY=0.5;entryDx=0;entryDy=0;" edge="1" parent="1" source="p0-o4S79YIVxH50bc59x-25" target="p0-o4S79YIVxH50bc59x-18">
          <mxGeometry width="50" height="50" relative="1" as="geometry">
            <mxPoint x="1140" y="480" as="sourcePoint" />
            <mxPoint x="1200" y="430" as="targetPoint" />
          </mxGeometry>
        </mxCell>
        <mxCell id="p0-o4S79YIVxH50bc59x-28" value="参与" style="rhombus;whiteSpace=wrap;html=1;" vertex="1" parent="1">
          <mxGeometry x="1030" y="310" width="90" height="50" as="geometry" />
        </mxCell>
        <mxCell id="p0-o4S79YIVxH50bc59x-29" value="" style="endArrow=none;html=1;rounded=0;entryX=0;entryY=0;entryDx=0;entryDy=0;exitX=1;exitY=0.75;exitDx=0;exitDy=0;" edge="1" parent="1" source="p0-o4S79YIVxH50bc59x-2" target="p0-o4S79YIVxH50bc59x-28">
          <mxGeometry width="50" height="50" relative="1" as="geometry">
            <mxPoint x="980" y="310" as="sourcePoint" />
            <mxPoint x="1030" y="260" as="targetPoint" />
          </mxGeometry>
        </mxCell>
        <mxCell id="p0-o4S79YIVxH50bc59x-30" value="论坛" style="rounded=0;whiteSpace=wrap;html=1;fillColor=#f8cecc;strokeColor=#b85450;" vertex="1" parent="1">
          <mxGeometry x="1155" y="330" width="85" height="40" as="geometry" />
        </mxCell>
        <mxCell id="p0-o4S79YIVxH50bc59x-31" value="评论" style="ellipse;whiteSpace=wrap;html=1;" vertex="1" parent="1">
          <mxGeometry x="1255" y="400" width="70" height="50" as="geometry" />
        </mxCell>
        <mxCell id="p0-o4S79YIVxH50bc59x-32" value="主题" style="ellipse;whiteSpace=wrap;html=1;" vertex="1" parent="1">
          <mxGeometry x="1310" y="335" width="75" height="50" as="geometry" />
        </mxCell>
        <mxCell id="p0-o4S79YIVxH50bc59x-33" value="" style="endArrow=none;html=1;rounded=0;entryX=0;entryY=0.5;entryDx=0;entryDy=0;exitX=1;exitY=0.5;exitDx=0;exitDy=0;" edge="1" parent="1" source="p0-o4S79YIVxH50bc59x-28" target="p0-o4S79YIVxH50bc59x-30">
          <mxGeometry width="50" height="50" relative="1" as="geometry">
            <mxPoint x="1090" y="350" as="sourcePoint" />
            <mxPoint x="1140" y="300" as="targetPoint" />
          </mxGeometry>
        </mxCell>
        <mxCell id="p0-o4S79YIVxH50bc59x-34" value="" style="endArrow=none;html=1;rounded=0;entryX=0.024;entryY=0.304;entryDx=0;entryDy=0;entryPerimeter=0;exitX=1;exitY=0.25;exitDx=0;exitDy=0;" edge="1" parent="1" source="p0-o4S79YIVxH50bc59x-30" target="p0-o4S79YIVxH50bc59x-32">
          <mxGeometry width="50" height="50" relative="1" as="geometry">
            <mxPoint x="1250" y="340" as="sourcePoint" />
            <mxPoint x="1290" y="290" as="targetPoint" />
          </mxGeometry>
        </mxCell>
        <mxCell id="p0-o4S79YIVxH50bc59x-35" value="" style="endArrow=none;html=1;rounded=0;exitX=0.5;exitY=0;exitDx=0;exitDy=0;entryX=0.5;entryY=1;entryDx=0;entryDy=0;" edge="1" parent="1" source="p0-o4S79YIVxH50bc59x-31" target="p0-o4S79YIVxH50bc59x-30">
          <mxGeometry width="50" height="50" relative="1" as="geometry">
            <mxPoint x="1160" y="400" as="sourcePoint" />
            <mxPoint x="1210" y="350" as="targetPoint" />
          </mxGeometry>
        </mxCell>
      </root>
    </mxGraphModel>
  </diagram>
</mxfile>
